<svg fill="none" xmlns="http://www.w3.org/2000/svg" viewBox="0 0 3815 1000"><g clip-path="url(#clip0)"><path d="M753.8 598.2c28.2-85.6 77.1-259.9 77.1-283.7 0-20.1-19.2-31.3-37.8-31.3-16.3 0-31.9 8.2-35.6 26-11.1 55.2-45.3 194.5-60.9 259.2-1.4 5.3-3.7 12-5.9 12-1.5 0-3-3-4.4-12.7-9-66.3-40.1-196.6-49.8-242.8-5.2-25.3-31.1-41-55.6-41-23 0-46 13.5-52 42.5-11 53.6-40 185.4-50.4 245-1.5 8.2-3.7 13.4-6.7 13.4-1.5 0-3.7-4.4-5.2-14.1a4547.5 4547.5 0 00-52-262.2c-4.4-17.1-20-24.5-36.3-24.5C359 284 339 295 339 316c0 2.2 0 4.4.7 7.4 14.9 64 51.2 207 66.8 273.3 9 36.5 35.6 55.2 62.4 55.2 26.7 0 54.1-18.7 63.8-55.2a2146.1 2146.1 0 0045.2-228.6c.8-6.7 2.3-9 3.7-9 1.5 0 3.7 4.5 4.5 9.8 8.1 65.5 35.6 190.6 45.2 227.8 9.7 38 33.4 54.4 58 54.4 26.6 0 53.3-19.4 64.5-52.9z" fill="#fff"/><path d="M753.8 598.2c28.2-85.6 77.1-259.9 77.1-283.7 0-20.1-19.2-31.3-37.8-31.3-16.3 0-31.9 8.2-35.6 26-11.1 55.2-45.3 194.5-60.9 259.2-1.4 5.3-3.7 12-5.9 12-1.5 0-3-3-4.4-12.7-9-66.3-40.1-196.6-49.8-242.8-5.2-25.3-31.1-41-55.6-41-23 0-46 13.5-52 42.5-11 53.6-40 185.4-50.4 245-1.5 8.2-3.7 13.4-6.7 13.4-1.5 0-3.7-4.4-5.2-14.1a4547.5 4547.5 0 00-52-262.2c-4.4-17.1-20-24.5-36.3-24.5C359 284 339 295 339 316c0 2.2 0 4.4.7 7.4 14.9 64 51.2 207 66.8 273.3 9 36.5 35.6 55.2 62.4 55.2 26.7 0 54.1-18.7 63.8-55.2a2146.1 2146.1 0 0045.2-228.6c.8-6.7 2.3-9 3.7-9 1.5 0 3.7 4.5 4.5 9.8 8.1 65.5 35.6 190.6 45.2 227.8 9.7 38 33.4 54.4 58 54.4 26.6 0 53.3-19.4 64.5-52.9z" fill="url(#paint0_linear)"/><path d="M993.4 617.6v-1.5a7113.1 7113.1 0 010-297.1v-1.5c0-23.9-20-35.8-39.4-35.8-22.2 0-40.8 13.4-40 38 .7 20.1.7 49.9.7 83.4 0 67.8-.7 152.7-.7 214.5 0 25.3 19.3 38 39.3 38 20 0 40-12.7 40-38z" fill="#fff"/><path d="M993.4 617.6v-1.5a7113.1 7113.1 0 010-297.1v-1.5c0-23.9-20-35.8-39.4-35.8-22.2 0-40.8 13.4-40 38 .7 20.1.7 49.9.7 83.4 0 67.8-.7 152.7-.7 214.5 0 25.3 19.3 38 39.3 38 20 0 40-12.7 40-38z" fill="url(#paint1_linear)"/><path d="M1355.7 616.1c0 23.8 19.3 37.2 38.5 37.2 19.3 0 37.9-12.6 38.6-39.4.8-15.7.8-36.5.8-59.6 0-55.1-1.5-121.4-2.3-148.2-3-83.4-63-124.4-125.3-124.4-38.6 0-78 15-105.4 44.7-1.5 1.5-3 3-3.7 3-.8 0-.8-.8-.8-1.5v-2.2c0-2.3.8-4.5.8-7.5 0-23.8-19.3-35-37.9-35-18.5 0-40 11.2-40 33.5v1.5a4221 4221 0 01-.8 297.2v1.5c0 23.8 19.3 36.4 39.3 36.4 29.7 0 38.6-22.3 37.9-38-1.5-52.8-2.2-92.3-2.2-122.8 0-20.9 0-38 .7-51.4 2.2-49.9 56.4-90.1 101.7-90.1 31.1 0 57.1 18.6 60 64.8.8 11.9 1.6 37.2 1.6 67 0 45.4-.8 102-1.5 132.6v.7z" fill="#fff"/><path d="M1355.7 616.1c0 23.8 19.3 37.2 38.5 37.2 19.3 0 37.9-12.6 38.6-39.4.8-15.7.8-36.5.8-59.6 0-55.1-1.5-121.4-2.3-148.2-3-83.4-63-124.4-125.3-124.4-38.6 0-78 15-105.4 44.7-1.5 1.5-3 3-3.7 3-.8 0-.8-.8-.8-1.5v-2.2c0-2.3.8-4.5.8-7.5 0-23.8-19.3-35-37.9-35-18.5 0-40 11.2-40 33.5v1.5a4221 4221 0 01-.8 297.2v1.5c0 23.8 19.3 36.4 39.3 36.4 29.7 0 38.6-22.3 37.9-38-1.5-52.8-2.2-92.3-2.2-122.8 0-20.9 0-38 .7-51.4 2.2-49.9 56.4-90.1 101.7-90.1 31.1 0 57.1 18.6 60 64.8.8 11.9 1.6 37.2 1.6 67 0 45.4-.8 102-1.5 132.6v.7z" fill="url(#paint2_linear)"/><path d="M1689 534.2c91.2-3.7 140.2-53.6 140.2-125.1 0-22.4-1.5-29.8-6.7-44-.7-2.2-.7-3.7-.7-4.4 0-3 1.5-3 3-3.8 4.4-2.2 7.4-4.4 15.5-4.4 2.2 0 6 0 9.7.7 3 .8 5.2.8 8.1.8 20.8 0 31.2-17.2 31.2-34.3 0-36.5-31.2-38.7-52.7-38.7-15.6 0-28.2 4.4-49.7 15.6a22.4 22.4 0 01-11.9 3.7c-3 0-7.4-.7-12.6-3.7a195.2 195.2 0 00-82.4-17.9h-1.4c-72.8 0-147 44-147 130.4 0 31.3 15.6 70 44.6 92.3 5.9 4.5 8.1 6.7 8.1 9 0 2.2-4.4 3.7-9.6 6.7-29 15.6-42.3 38.7-42.3 66.2 0 19.4 11.9 44 40.8 53 5.2 1.4 6.7 2.9 6.7 4.4 0 .7-1.5 2.2-3.7 3-35.7 14.9-65.3 42.4-65.3 83.4 0 48.4 47.5 116.9 181.8 116.9 99.4 0 196.6-41.7 196.6-141.5 0-61-49.7-115.4-161-115.4-112 0-121-3-121-16.4 0-29.8 50.5-35.8 81.7-36.5zm71.2-126.6c0 43.2-37.1 64.8-80.9 64.8-66 0-75-44.7-75-64 0-38 34.2-65.6 78-65.6 55.6 0 77.9 31.3 77.9 64.8zm51.2 299.4c0 67.7-96.5 70.7-117.3 70.7-106.8 0-109-51.4-109-58 0-9 10.4-69.3 108.3-69.3 56.4 0 118 0 118 56.6z" fill="#fff"/><path d="M1689 534.2c91.2-3.7 140.2-53.6 140.2-125.1 0-22.4-1.5-29.8-6.7-44-.7-2.2-.7-3.7-.7-4.4 0-3 1.5-3 3-3.8 4.4-2.2 7.4-4.4 15.5-4.4 2.2 0 6 0 9.7.7 3 .8 5.2.8 8.1.8 20.8 0 31.2-17.2 31.2-34.3 0-36.5-31.2-38.7-52.7-38.7-15.6 0-28.2 4.4-49.7 15.6a22.4 22.4 0 01-11.9 3.7c-3 0-7.4-.7-12.6-3.7a195.2 195.2 0 00-82.4-17.9h-1.4c-72.8 0-147 44-147 130.4 0 31.3 15.6 70 44.6 92.3 5.9 4.5 8.1 6.7 8.1 9 0 2.2-4.4 3.7-9.6 6.7-29 15.6-42.3 38.7-42.3 66.2 0 19.4 11.9 44 40.8 53 5.2 1.4 6.7 2.9 6.7 4.4 0 .7-1.5 2.2-3.7 3-35.7 14.9-65.3 42.4-65.3 83.4 0 48.4 47.5 116.9 181.8 116.9 99.4 0 196.6-41.7 196.6-141.5 0-61-49.7-115.4-161-115.4-112 0-121-3-121-16.4 0-29.8 50.5-35.8 81.7-36.5zm71.2-126.6c0 43.2-37.1 64.8-80.9 64.8-66 0-75-44.7-75-64 0-38 34.2-65.6 78-65.6 55.6 0 77.9 31.3 77.9 64.8zm51.2 299.4c0 67.7-96.5 70.7-117.3 70.7-106.8 0-109-51.4-109-58 0-9 10.4-69.3 108.3-69.3 56.4 0 118 0 118 56.6z" fill="url(#paint3_linear)"/><path d="M2381.6 616.1c0 25.3 18.6 39.5 36.4 39.5 18.5 0 36.3-13.4 37-41.7.8-16.4.8-38.8.8-63.3 0-54.4-.7-118.4-1.5-144.5-2.2-81.2-56.4-125.9-115-125.9-40.8 0-83 21.6-112 67a107.3 107.3 0 00-100.2-67.7c-32.6 0-65.3 13.4-89 40.2-.8.8-2.3 2.2-3 2.2 0 0-.7-1.4-.7-3.7 0-25.3-20-37.2-37.1-37.2s-37.1 11.1-37.1 35.7v1.5c.7 43.2 1.5 79 1.5 116.2 0 48.4-.8 100.5-3 180.2v1.5c0 26 19.3 39.5 37.8 39.5 16.3 0 37.1-9.7 36.4-40.2-1.5-58.1-2.2-101.3-2.2-133.3 0-17.2 0-31.3.7-43.2 2.2-51.4 48.2-89.4 86.8-89.4 26 0 49 17.9 52 62.6.7 12.6.7 41.7.7 75.2 0 45.4 0 99-.8 128v.8c0 26 17.9 38.7 35.7 38.7a36.5 36.5 0 0037-38v-1.4c-1.4-58.1-2.2-101.3-2.2-133.3 0-17.2 0-31.3.8-43.2 2.2-50.7 49-88.7 88.3-88.7 26.7 0 49.7 18 52 61.9.7 12.6.7 41.7.7 75.2 0 45.4 0 99-.8 128v.8z" fill="#fff"/><path d="M2381.6 616.1c0 25.3 18.6 39.5 36.4 39.5 18.5 0 36.3-13.4 37-41.7.8-16.4.8-38.8.8-63.3 0-54.4-.7-118.4-1.5-144.5-2.2-81.2-56.4-125.9-115-125.9-40.8 0-83 21.6-112 67a107.3 107.3 0 00-100.2-67.7c-32.6 0-65.3 13.4-89 40.2-.8.8-2.3 2.2-3 2.2 0 0-.7-1.4-.7-3.7 0-25.3-20-37.2-37.1-37.2s-37.1 11.1-37.1 35.7v1.5c.7 43.2 1.5 79 1.5 116.2 0 48.4-.8 100.5-3 180.2v1.5c0 26 19.3 39.5 37.8 39.5 16.3 0 37.1-9.7 36.4-40.2-1.5-58.1-2.2-101.3-2.2-133.3 0-17.2 0-31.3.7-43.2 2.2-51.4 48.2-89.4 86.8-89.4 26 0 49 17.9 52 62.6.7 12.6.7 41.7.7 75.2 0 45.4 0 99-.8 128v.8c0 26 17.9 38.7 35.7 38.7a36.5 36.5 0 0037-38v-1.4c-1.4-58.1-2.2-101.3-2.2-133.3 0-17.2 0-31.3.8-43.2 2.2-50.7 49-88.7 88.3-88.7 26.7 0 49.7 18 52 61.9.7 12.6.7 41.7.7 75.2 0 45.4 0 99-.8 128v.8z" fill="url(#paint4_linear)"/><path d="M2847.8 648.9c21.5 0 37.8-23.9 37.8-44.7 0-10.4-3.7-20.1-11.8-26-6-4.5-33.4-6.8-40.1-66.4-.7-4.4-.7-10.4-.7-17 0-22.4 2.2-50.7 3.7-61.9.7-10.4 1.5-19.4 1.5-29 0-85.7-44.6-125.9-126.2-125.9-75 0-140.2 39.5-140.2 75.2a35 35 0 0035.6 34.3 36 36 0 0027.4-13.4 98 98 0 0172.8-31.3c50.4 0 52.6 38 52.6 47 0 15.6-5.9 24.5-13.3 25.2-11.9.8-75.7 15-126.9 32.8-49.7 17.1-72 55.1-72 93 0 57.4 48.3 117 129.9 117 43.8 0 90.5-15.6 115.7-44.7 1.5-1.5 3-2.2 4.5-2.2.7 0 2.2.7 3 2.2a88.7 88.7 0 0020 24.6 43.3 43.3 0 0026.7 11.2zm-94.2-171.3c8.9 0 10.3 16.4 10.3 27.5 0 53-26 83.5-86 83.5-37.9 0-57.9-23.1-57.9-46.2 0-17.9 7.4-49.2 132.8-64.8h.8z" fill="#fff"/><path d="M2847.8 648.9c21.5 0 37.8-23.9 37.8-44.7 0-10.4-3.7-20.1-11.8-26-6-4.5-33.4-6.8-40.1-66.4-.7-4.4-.7-10.4-.7-17 0-22.4 2.2-50.7 3.7-61.9.7-10.4 1.5-19.4 1.5-29 0-85.7-44.6-125.9-126.2-125.9-75 0-140.2 39.5-140.2 75.2a35 35 0 0035.6 34.3 36 36 0 0027.4-13.4 98 98 0 0172.8-31.3c50.4 0 52.6 38 52.6 47 0 15.6-5.9 24.5-13.3 25.2-11.9.8-75.7 15-126.9 32.8-49.7 17.1-72 55.1-72 93 0 57.4 48.3 117 129.9 117 43.8 0 90.5-15.6 115.7-44.7 1.5-1.5 3-2.2 4.5-2.2.7 0 2.2.7 3 2.2a88.7 88.7 0 0020 24.6 43.3 43.3 0 0026.7 11.2zm-94.2-171.3c8.9 0 10.3 16.4 10.3 27.5 0 53-26 83.5-86 83.5-37.9 0-57.9-23.1-57.9-46.2 0-17.9 7.4-49.2 132.8-64.8h.8z" fill="url(#paint5_linear)"/><path d="M3197.6 616.1c0 23.8 19.3 37.2 38.6 37.2s37.9-12.6 38.6-39.4c.7-15.7.7-36.5.7-59.6 0-55.1-1.4-121.4-2.2-148.2-3-83.4-63-124.4-125.4-124.4-38.6 0-77.9 15-105.4 44.7-1.4 1.5-3 3-3.7 3-.7 0-.7-.8-.7-1.5v-2.2c0-2.3.7-4.5.7-7.5 0-23.8-19.3-35-37.8-35-18.6 0-40 11.2-40 33.5v1.5a4221 4221 0 01-.8 297.2v1.5c0 23.8 19.3 36.4 39.3 36.4 29.7 0 38.6-22.3 37.8-38-1.4-52.8-2.2-92.3-2.2-122.8 0-20.9 0-38 .8-51.4 2.2-49.9 56.4-90.1 101.6-90.1 31.2 0 57.2 18.6 60.1 64.8.8 11.9 1.5 37.2 1.5 67 0 45.4-.7 102-1.5 132.6v.7z" fill="#fff"/><path d="M3197.6 616.1c0 23.8 19.3 37.2 38.6 37.2s37.9-12.6 38.6-39.4c.7-15.7.7-36.5.7-59.6 0-55.1-1.4-121.4-2.2-148.2-3-83.4-63-124.4-125.4-124.4-38.6 0-77.9 15-105.4 44.7-1.4 1.5-3 3-3.7 3-.7 0-.7-.8-.7-1.5v-2.2c0-2.3.7-4.5.7-7.5 0-23.8-19.3-35-37.8-35-18.6 0-40 11.2-40 33.5v1.5a4221 4221 0 01-.8 297.2v1.5c0 23.8 19.3 36.4 39.3 36.4 29.7 0 38.6-22.3 37.8-38-1.4-52.8-2.2-92.3-2.2-122.8 0-20.9 0-38 .8-51.4 2.2-49.9 56.4-90.1 101.6-90.1 31.2 0 57.2 18.6 60.1 64.8.8 11.9 1.5 37.2 1.5 67 0 45.4-.7 102-1.5 132.6v.7z" fill="url(#paint6_linear)"/><path d="M3476 599.7c0-32-28.2-49.9-52.7-49.9-20.8 0-52 14.2-52 50.7 0 43.2 32 52.1 52 52.1 37.1 0 52.7-33.5 52.7-52.9z" fill="#fff"/><path d="M3476 599.7c0-32-28.2-49.9-52.7-49.9-20.8 0-52 14.2-52 50.7 0 43.2 32 52.1 52 52.1 37.1 0 52.7-33.5 52.7-52.9z" fill="url(#paint7_linear)"/></g><defs><linearGradient id="paint0_linear" x1="339" y1="292" x2="339" y2="1014.4" gradientUnits="userSpaceOnUse"><stop stop-color="#790FFF"/><stop offset="1" stop-color="#492CFF"/></linearGradient><linearGradient id="paint1_linear" x1="339" y1="292" x2="339" y2="1014.4" gradientUnits="userSpaceOnUse"><stop stop-color="#790FFF"/><stop offset="1" stop-color="#492CFF"/></linearGradient><linearGradient id="paint2_linear" x1="339" y1="292" x2="339" y2="1014.4" gradientUnits="userSpaceOnUse"><stop stop-color="#790FFF"/><stop offset="1" stop-color="#492CFF"/></linearGradient><linearGradient id="paint3_linear" x1="339" y1="292" x2="339" y2="1014.4" gradientUnits="userSpaceOnUse"><stop stop-color="#790FFF"/><stop offset="1" stop-color="#492CFF"/></linearGradient><linearGradient id="paint4_linear" x1="339" y1="292" x2="339" y2="1014.4" gradientUnits="userSpaceOnUse"><stop stop-color="#790FFF"/><stop offset="1" stop-color="#492CFF"/></linearGradient><linearGradient id="paint5_linear" x1="339" y1="292" x2="339" y2="1014.4" gradientUnits="userSpaceOnUse"><stop stop-color="#790FFF"/><stop offset="1" stop-color="#492CFF"/></linearGradient><linearGradient id="paint6_linear" x1="339" y1="292" x2="339" y2="1014.4" gradientUnits="userSpaceOnUse"><stop stop-color="#790FFF"/><stop offset="1" stop-color="#492CFF"/></linearGradient><linearGradient id="paint7_linear" x1="339" y1="292" x2="339" y2="1014.4" gradientUnits="userSpaceOnUse"><stop stop-color="#790FFF"/><stop offset="1" stop-color="#492CFF"/></linearGradient><clipPath id="clip0"><path fill="#fff" transform="matrix(0 1 -1 0 3815 0)" d="M0 0h1000v3815H0z"/></clipPath></defs></svg>