<svg width="3815" height="1000" viewBox="0 0 3815 1000" fill="none" xmlns="http://www.w3.org/2000/svg">
<g clip-path="url(#clip0)">
<path d="M753.779 598.237C781.975 512.592 830.947 338.324 830.947 314.492C830.947 294.384 811.655 283.213 793.105 283.213C776.781 283.213 761.199 291.405 757.489 309.279C746.359 364.39 712.226 503.655 696.644 568.447C695.16 573.661 692.934 580.363 690.708 580.363C689.224 580.363 687.74 577.384 686.256 567.703C677.352 501.421 646.188 371.092 636.542 324.918C631.348 299.597 605.378 283.958 580.892 283.958C557.89 283.958 534.888 297.363 528.952 326.408C517.822 380.029 488.884 511.847 478.496 571.426C477.012 579.618 474.786 584.832 471.818 584.832C470.334 584.832 468.108 580.363 466.624 570.682C456.978 508.868 428.782 365.879 414.684 308.534C410.232 291.405 394.65 283.958 378.326 283.958C359.034 283.958 339 295.129 339 315.982C339 318.216 339 320.45 339.742 323.429C354.582 387.476 390.94 530.466 406.522 596.747C415.426 633.239 442.138 651.858 468.85 651.858C495.562 651.858 523.016 633.239 532.662 596.747C546.018 547.595 569.762 434.395 577.924 368.113C578.666 361.411 580.15 359.176 581.634 359.176C583.118 359.176 585.344 363.645 586.086 368.858C594.248 434.395 621.702 559.511 631.348 596.747C640.994 634.729 664.738 651.113 689.224 651.113C715.936 651.113 742.649 631.75 753.779 598.237Z" fill="white"/>
<path d="M753.779 598.237C781.975 512.592 830.947 338.324 830.947 314.492C830.947 294.384 811.655 283.213 793.105 283.213C776.781 283.213 761.199 291.405 757.489 309.279C746.359 364.39 712.226 503.655 696.644 568.447C695.16 573.661 692.934 580.363 690.708 580.363C689.224 580.363 687.74 577.384 686.256 567.703C677.352 501.421 646.188 371.092 636.542 324.918C631.348 299.597 605.378 283.958 580.892 283.958C557.89 283.958 534.888 297.363 528.952 326.408C517.822 380.029 488.884 511.847 478.496 571.426C477.012 579.618 474.786 584.832 471.818 584.832C470.334 584.832 468.108 580.363 466.624 570.682C456.978 508.868 428.782 365.879 414.684 308.534C410.232 291.405 394.65 283.958 378.326 283.958C359.034 283.958 339 295.129 339 315.982C339 318.216 339 320.45 339.742 323.429C354.582 387.476 390.94 530.466 406.522 596.747C415.426 633.239 442.138 651.858 468.85 651.858C495.562 651.858 523.016 633.239 532.662 596.747C546.018 547.595 569.762 434.395 577.924 368.113C578.666 361.411 580.15 359.176 581.634 359.176C583.118 359.176 585.344 363.645 586.086 368.858C594.248 434.395 621.702 559.511 631.348 596.747C640.994 634.729 664.738 651.113 689.224 651.113C715.936 651.113 742.649 631.75 753.779 598.237Z" fill="url(#paint0_linear)"/>
<path d="M993.364 617.6C993.364 616.855 993.364 616.855 993.364 616.111C992.622 575.15 991.88 522.274 991.88 470.887C991.88 408.329 992.622 349.495 993.364 318.961C993.364 318.216 993.364 318.216 993.364 317.471C993.364 293.639 973.33 281.724 954.038 281.724C931.778 281.724 913.228 295.129 913.97 319.705C914.712 339.813 914.711 369.603 914.711 403.116C914.711 470.887 913.97 555.787 913.97 617.6C913.97 642.921 933.262 655.582 953.296 655.582C973.33 655.582 993.364 642.921 993.364 617.6Z" fill="white"/>
<path d="M993.364 617.6C993.364 616.855 993.364 616.855 993.364 616.111C992.622 575.15 991.88 522.274 991.88 470.887C991.88 408.329 992.622 349.495 993.364 318.961C993.364 318.216 993.364 318.216 993.364 317.471C993.364 293.639 973.33 281.724 954.038 281.724C931.778 281.724 913.228 295.129 913.97 319.705C914.712 339.813 914.711 369.603 914.711 403.116C914.711 470.887 913.97 555.787 913.97 617.6C913.97 642.921 933.262 655.582 953.296 655.582C973.33 655.582 993.364 642.921 993.364 617.6Z" fill="url(#paint1_linear)"/>
<path d="M1355.66 616.111C1355.66 639.942 1374.95 653.347 1394.25 653.347C1413.54 653.347 1432.09 640.687 1432.83 613.876C1433.57 598.237 1433.57 577.384 1433.57 554.297C1433.57 499.187 1432.09 432.905 1431.35 406.095C1428.38 322.684 1368.28 281.724 1305.95 281.724C1267.36 281.724 1228.04 296.618 1200.58 326.408C1199.1 327.897 1197.62 329.387 1196.87 329.387C1196.13 329.387 1196.13 328.642 1196.13 327.897C1196.13 327.153 1196.13 326.408 1196.13 325.663C1196.13 323.429 1196.87 321.195 1196.87 318.216C1196.87 294.384 1177.58 283.213 1159.03 283.213C1140.48 283.213 1118.96 294.384 1118.96 316.726C1118.96 317.471 1118.96 317.471 1118.96 318.216C1120.45 368.113 1121.19 406.839 1121.19 451.524C1121.19 495.463 1120.45 544.616 1118.22 615.366C1118.22 616.111 1118.22 616.111 1118.22 616.855C1118.22 640.687 1137.51 653.347 1157.55 653.347C1187.23 653.347 1196.13 631.005 1195.39 615.366C1193.91 562.489 1193.16 523.018 1193.16 492.484C1193.16 471.632 1193.16 454.503 1193.91 441.097C1196.13 391.2 1250.3 350.984 1295.56 350.984C1326.72 350.984 1352.7 369.603 1355.66 415.776C1356.41 427.692 1357.15 453.013 1357.15 482.803C1357.15 528.232 1356.41 584.832 1355.66 615.366V616.111Z" fill="white"/>
<path d="M1355.66 616.111C1355.66 639.942 1374.95 653.347 1394.25 653.347C1413.54 653.347 1432.09 640.687 1432.83 613.876C1433.57 598.237 1433.57 577.384 1433.57 554.297C1433.57 499.187 1432.09 432.905 1431.35 406.095C1428.38 322.684 1368.28 281.724 1305.95 281.724C1267.36 281.724 1228.04 296.618 1200.58 326.408C1199.1 327.897 1197.62 329.387 1196.87 329.387C1196.13 329.387 1196.13 328.642 1196.13 327.897C1196.13 327.153 1196.13 326.408 1196.13 325.663C1196.13 323.429 1196.87 321.195 1196.87 318.216C1196.87 294.384 1177.58 283.213 1159.03 283.213C1140.48 283.213 1118.96 294.384 1118.96 316.726C1118.96 317.471 1118.96 317.471 1118.96 318.216C1120.45 368.113 1121.19 406.839 1121.19 451.524C1121.19 495.463 1120.45 544.616 1118.22 615.366C1118.22 616.111 1118.22 616.111 1118.22 616.855C1118.22 640.687 1137.51 653.347 1157.55 653.347C1187.23 653.347 1196.13 631.005 1195.39 615.366C1193.91 562.489 1193.16 523.018 1193.16 492.484C1193.16 471.632 1193.16 454.503 1193.91 441.097C1196.13 391.2 1250.3 350.984 1295.56 350.984C1326.72 350.984 1352.7 369.603 1355.66 415.776C1356.41 427.692 1357.15 453.013 1357.15 482.803C1357.15 528.232 1356.41 584.832 1355.66 615.366V616.111Z" fill="url(#paint2_linear)"/>
<path d="M1688.95 534.19C1780.22 530.466 1829.19 480.568 1829.19 409.074C1829.19 386.732 1827.7 379.284 1822.51 365.134C1821.77 362.9 1821.77 361.411 1821.77 360.666C1821.77 357.687 1823.25 357.687 1824.74 356.942C1829.19 354.708 1832.16 352.474 1840.32 352.474C1842.54 352.474 1846.25 352.474 1849.96 353.218C1852.93 353.963 1855.16 353.963 1858.13 353.963C1878.9 353.963 1889.29 336.834 1889.29 319.705C1889.29 283.213 1858.13 280.979 1836.61 280.979C1821.02 280.979 1808.41 285.447 1786.89 296.618C1783.18 298.853 1779.47 300.342 1775.02 300.342C1772.05 300.342 1767.6 299.597 1762.41 296.618C1737.18 284.703 1708.24 278.745 1680.04 278.745C1679.3 278.745 1678.56 278.745 1678.56 278.745C1605.84 278.745 1531.64 322.684 1531.64 409.074C1531.64 440.353 1547.23 479.079 1576.16 501.421C1582.1 505.889 1584.33 508.124 1584.33 510.358C1584.33 512.592 1579.87 514.082 1574.68 517.061C1545.74 532.7 1532.39 555.787 1532.39 583.342C1532.39 602.705 1544.26 627.282 1573.2 636.218C1578.39 637.708 1579.87 639.197 1579.87 640.687C1579.87 641.432 1578.39 642.921 1576.16 643.666C1540.55 658.561 1510.87 686.116 1510.87 727.076C1510.87 775.484 1558.36 844 1692.66 844C1792.09 844 1889.29 802.295 1889.29 702.5C1889.29 641.432 1839.58 587.066 1728.27 587.066C1616.23 587.066 1607.33 584.087 1607.33 570.682C1607.33 540.892 1657.78 534.934 1688.95 534.19ZM1760.18 407.584C1760.18 450.779 1723.08 472.376 1679.3 472.376C1613.26 472.376 1604.36 427.692 1604.36 408.329C1604.36 370.347 1638.49 342.792 1682.27 342.792C1737.92 342.792 1760.18 374.071 1760.18 407.584ZM1811.38 706.968C1811.38 774.739 1714.92 777.718 1694.14 777.718C1587.29 777.718 1585.07 726.332 1585.07 719.629C1585.07 710.692 1595.46 650.368 1693.4 650.368C1749.79 650.368 1811.38 650.368 1811.38 706.968Z" fill="white"/>
<path d="M1688.95 534.19C1780.22 530.466 1829.19 480.568 1829.19 409.074C1829.19 386.732 1827.7 379.284 1822.51 365.134C1821.77 362.9 1821.77 361.411 1821.77 360.666C1821.77 357.687 1823.25 357.687 1824.74 356.942C1829.19 354.708 1832.16 352.474 1840.32 352.474C1842.54 352.474 1846.25 352.474 1849.96 353.218C1852.93 353.963 1855.16 353.963 1858.13 353.963C1878.9 353.963 1889.29 336.834 1889.29 319.705C1889.29 283.213 1858.13 280.979 1836.61 280.979C1821.02 280.979 1808.41 285.447 1786.89 296.618C1783.18 298.853 1779.47 300.342 1775.02 300.342C1772.05 300.342 1767.6 299.597 1762.41 296.618C1737.18 284.703 1708.24 278.745 1680.04 278.745C1679.3 278.745 1678.56 278.745 1678.56 278.745C1605.84 278.745 1531.64 322.684 1531.64 409.074C1531.64 440.353 1547.23 479.079 1576.16 501.421C1582.1 505.889 1584.33 508.124 1584.33 510.358C1584.33 512.592 1579.87 514.082 1574.68 517.061C1545.74 532.7 1532.39 555.787 1532.39 583.342C1532.39 602.705 1544.26 627.282 1573.2 636.218C1578.39 637.708 1579.87 639.197 1579.87 640.687C1579.87 641.432 1578.39 642.921 1576.16 643.666C1540.55 658.561 1510.87 686.116 1510.87 727.076C1510.87 775.484 1558.36 844 1692.66 844C1792.09 844 1889.29 802.295 1889.29 702.5C1889.29 641.432 1839.58 587.066 1728.27 587.066C1616.23 587.066 1607.33 584.087 1607.33 570.682C1607.33 540.892 1657.78 534.934 1688.95 534.19ZM1760.18 407.584C1760.18 450.779 1723.08 472.376 1679.3 472.376C1613.26 472.376 1604.36 427.692 1604.36 408.329C1604.36 370.347 1638.49 342.792 1682.27 342.792C1737.92 342.792 1760.18 374.071 1760.18 407.584ZM1811.38 706.968C1811.38 774.739 1714.92 777.718 1694.14 777.718C1587.29 777.718 1585.07 726.332 1585.07 719.629C1585.07 710.692 1595.46 650.368 1693.4 650.368C1749.79 650.368 1811.38 650.368 1811.38 706.968Z" fill="url(#paint3_linear)"/>
<path d="M2381.62 616.111C2381.62 641.432 2400.17 655.582 2417.98 655.582C2436.53 655.582 2454.34 642.176 2455.08 613.876C2455.82 597.492 2455.82 575.15 2455.82 550.574C2455.82 496.208 2455.08 432.161 2454.34 406.095C2452.11 324.918 2397.95 280.234 2339.33 280.234C2298.52 280.234 2256.23 301.832 2227.29 347.261C2208 301.832 2167.93 279.489 2127.12 279.489C2094.47 279.489 2061.82 292.895 2038.08 319.705C2037.34 320.45 2035.85 321.94 2035.11 321.94C2035.11 321.94 2034.37 320.45 2034.37 318.216C2034.37 292.895 2014.33 280.979 1997.27 280.979C1980.2 280.979 1960.17 292.15 1960.17 316.726C1960.17 317.471 1960.17 317.471 1960.17 318.216C1960.91 361.411 1961.65 397.158 1961.65 434.395C1961.65 482.803 1960.91 534.934 1958.68 614.621C1958.68 615.366 1958.68 615.366 1958.68 616.111C1958.68 642.176 1977.98 655.582 1996.53 655.582C2012.85 655.582 2033.63 645.9 2032.88 615.366C2031.4 557.276 2030.66 514.082 2030.66 482.058C2030.66 464.929 2030.66 450.779 2031.4 438.863C2033.63 387.476 2079.63 349.495 2118.21 349.495C2144.18 349.495 2167.19 367.368 2170.15 412.053C2170.9 424.713 2170.9 453.758 2170.9 487.271C2170.9 532.7 2170.9 586.321 2170.15 615.366V616.111C2170.15 642.176 2187.96 654.837 2205.77 654.837C2224.32 654.837 2242.87 641.432 2242.87 616.855C2242.87 616.111 2242.87 616.111 2242.87 615.366C2241.39 557.276 2240.64 514.082 2240.64 482.058C2240.64 464.929 2240.64 450.779 2241.39 438.863C2243.61 388.221 2290.36 350.239 2329.68 350.239C2356.4 350.239 2379.4 368.113 2381.62 412.053C2382.37 424.713 2382.37 453.758 2382.37 487.271C2382.37 532.7 2382.37 586.321 2381.62 615.366V616.111Z" fill="white"/>
<path d="M2381.62 616.111C2381.62 641.432 2400.17 655.582 2417.98 655.582C2436.53 655.582 2454.34 642.176 2455.08 613.876C2455.82 597.492 2455.82 575.15 2455.82 550.574C2455.82 496.208 2455.08 432.161 2454.34 406.095C2452.11 324.918 2397.95 280.234 2339.33 280.234C2298.52 280.234 2256.23 301.832 2227.29 347.261C2208 301.832 2167.93 279.489 2127.12 279.489C2094.47 279.489 2061.82 292.895 2038.08 319.705C2037.34 320.45 2035.85 321.94 2035.11 321.94C2035.11 321.94 2034.37 320.45 2034.37 318.216C2034.37 292.895 2014.33 280.979 1997.27 280.979C1980.2 280.979 1960.17 292.15 1960.17 316.726C1960.17 317.471 1960.17 317.471 1960.17 318.216C1960.91 361.411 1961.65 397.158 1961.65 434.395C1961.65 482.803 1960.91 534.934 1958.68 614.621C1958.68 615.366 1958.68 615.366 1958.68 616.111C1958.68 642.176 1977.98 655.582 1996.53 655.582C2012.85 655.582 2033.63 645.9 2032.88 615.366C2031.4 557.276 2030.66 514.082 2030.66 482.058C2030.66 464.929 2030.66 450.779 2031.4 438.863C2033.63 387.476 2079.63 349.495 2118.21 349.495C2144.18 349.495 2167.19 367.368 2170.15 412.053C2170.9 424.713 2170.9 453.758 2170.9 487.271C2170.9 532.7 2170.9 586.321 2170.15 615.366V616.111C2170.15 642.176 2187.96 654.837 2205.77 654.837C2224.32 654.837 2242.87 641.432 2242.87 616.855C2242.87 616.111 2242.87 616.111 2242.87 615.366C2241.39 557.276 2240.64 514.082 2240.64 482.058C2240.64 464.929 2240.64 450.779 2241.39 438.863C2243.61 388.221 2290.36 350.239 2329.68 350.239C2356.4 350.239 2379.4 368.113 2381.62 412.053C2382.37 424.713 2382.37 453.758 2382.37 487.271C2382.37 532.7 2382.37 586.321 2381.62 615.366V616.111Z" fill="url(#paint4_linear)"/>
<path d="M2847.8 648.879C2869.32 648.879 2885.64 625.047 2885.64 604.195C2885.64 593.768 2881.93 584.087 2873.77 578.129C2867.83 573.661 2840.38 571.426 2833.7 511.847C2832.96 507.379 2832.96 501.421 2832.96 494.718C2832.96 472.376 2835.18 444.076 2836.67 432.905C2837.41 422.479 2838.15 413.542 2838.15 403.861C2838.15 318.216 2793.63 278 2712.01 278C2637.07 278 2571.77 317.471 2571.77 353.218C2571.77 372.582 2588.1 387.476 2607.39 387.476C2616.29 387.476 2626.68 383.753 2634.84 374.071C2648.94 358.432 2674.17 342.792 2707.56 342.792C2758.02 342.792 2760.24 380.774 2760.24 389.711C2760.24 405.35 2754.31 414.287 2746.89 415.032C2735.01 415.776 2671.2 429.926 2620 447.8C2570.29 464.929 2548.03 502.911 2548.03 540.892C2548.03 598.237 2596.26 657.816 2677.88 657.816C2721.66 657.816 2768.4 642.176 2793.63 613.132C2795.12 611.642 2796.6 610.897 2798.08 610.897C2798.83 610.897 2800.31 611.642 2801.05 613.132C2807.73 624.303 2814.41 632.495 2821.09 637.708C2829.99 645.155 2839.64 648.879 2847.8 648.879ZM2753.56 477.59C2762.47 477.59 2763.95 493.974 2763.95 505.145C2763.95 558.021 2737.98 588.555 2677.88 588.555C2640.04 588.555 2620 565.468 2620 542.382C2620 524.508 2627.42 493.229 2752.82 477.59H2753.56Z" fill="white"/>
<path d="M2847.8 648.879C2869.32 648.879 2885.64 625.047 2885.64 604.195C2885.64 593.768 2881.93 584.087 2873.77 578.129C2867.83 573.661 2840.38 571.426 2833.7 511.847C2832.96 507.379 2832.96 501.421 2832.96 494.718C2832.96 472.376 2835.18 444.076 2836.67 432.905C2837.41 422.479 2838.15 413.542 2838.15 403.861C2838.15 318.216 2793.63 278 2712.01 278C2637.07 278 2571.77 317.471 2571.77 353.218C2571.77 372.582 2588.1 387.476 2607.39 387.476C2616.29 387.476 2626.68 383.753 2634.84 374.071C2648.94 358.432 2674.17 342.792 2707.56 342.792C2758.02 342.792 2760.24 380.774 2760.24 389.711C2760.24 405.35 2754.31 414.287 2746.89 415.032C2735.01 415.776 2671.2 429.926 2620 447.8C2570.29 464.929 2548.03 502.911 2548.03 540.892C2548.03 598.237 2596.26 657.816 2677.88 657.816C2721.66 657.816 2768.4 642.176 2793.63 613.132C2795.12 611.642 2796.6 610.897 2798.08 610.897C2798.83 610.897 2800.31 611.642 2801.05 613.132C2807.73 624.303 2814.41 632.495 2821.09 637.708C2829.99 645.155 2839.64 648.879 2847.8 648.879ZM2753.56 477.59C2762.47 477.59 2763.95 493.974 2763.95 505.145C2763.95 558.021 2737.98 588.555 2677.88 588.555C2640.04 588.555 2620 565.468 2620 542.382C2620 524.508 2627.42 493.229 2752.82 477.59H2753.56Z" fill="url(#paint5_linear)"/>
<path d="M3197.62 616.111C3197.62 639.942 3216.91 653.347 3236.21 653.347C3255.5 653.347 3274.05 640.687 3274.79 613.876C3275.53 598.237 3275.53 577.384 3275.53 554.297C3275.53 499.187 3274.05 432.905 3273.31 406.095C3270.34 322.684 3210.24 281.724 3147.91 281.724C3109.32 281.724 3070 296.618 3042.54 326.408C3041.06 327.897 3039.58 329.387 3038.83 329.387C3038.09 329.387 3038.09 328.642 3038.09 327.897C3038.09 327.153 3038.09 326.408 3038.09 325.663C3038.09 323.429 3038.83 321.195 3038.83 318.216C3038.83 294.384 3019.54 283.213 3000.99 283.213C2982.44 283.213 2960.92 294.384 2960.92 316.726C2960.92 317.471 2960.92 317.471 2960.92 318.216C2962.41 368.113 2963.15 406.839 2963.15 451.524C2963.15 495.463 2962.41 544.616 2960.18 615.366C2960.18 616.111 2960.18 616.111 2960.18 616.855C2960.18 640.687 2979.47 653.347 2999.51 653.347C3029.19 653.347 3038.09 631.005 3037.35 615.366C3035.87 562.489 3035.12 523.018 3035.12 492.484C3035.12 471.632 3035.12 454.503 3035.87 441.097C3038.09 391.2 3092.26 350.984 3137.52 350.984C3168.68 350.984 3194.65 369.603 3197.62 415.776C3198.36 427.692 3199.11 453.013 3199.11 482.803C3199.11 528.232 3198.36 584.832 3197.62 615.366V616.111Z" fill="white"/>
<path d="M3197.62 616.111C3197.62 639.942 3216.91 653.347 3236.21 653.347C3255.5 653.347 3274.05 640.687 3274.79 613.876C3275.53 598.237 3275.53 577.384 3275.53 554.297C3275.53 499.187 3274.05 432.905 3273.31 406.095C3270.34 322.684 3210.24 281.724 3147.91 281.724C3109.32 281.724 3070 296.618 3042.54 326.408C3041.06 327.897 3039.58 329.387 3038.83 329.387C3038.09 329.387 3038.09 328.642 3038.09 327.897C3038.09 327.153 3038.09 326.408 3038.09 325.663C3038.09 323.429 3038.83 321.195 3038.83 318.216C3038.83 294.384 3019.54 283.213 3000.99 283.213C2982.44 283.213 2960.92 294.384 2960.92 316.726C2960.92 317.471 2960.92 317.471 2960.92 318.216C2962.41 368.113 2963.15 406.839 2963.15 451.524C2963.15 495.463 2962.41 544.616 2960.18 615.366C2960.18 616.111 2960.18 616.111 2960.18 616.855C2960.18 640.687 2979.47 653.347 2999.51 653.347C3029.19 653.347 3038.09 631.005 3037.35 615.366C3035.87 562.489 3035.12 523.018 3035.12 492.484C3035.12 471.632 3035.12 454.503 3035.87 441.097C3038.09 391.2 3092.26 350.984 3137.52 350.984C3168.68 350.984 3194.65 369.603 3197.62 415.776C3198.36 427.692 3199.11 453.013 3199.11 482.803C3199.11 528.232 3198.36 584.832 3197.62 615.366V616.111Z" fill="url(#paint6_linear)"/>
<path d="M3476 599.726C3476 567.703 3447.8 549.829 3423.32 549.829C3402.54 549.829 3371.38 563.979 3371.38 600.471C3371.38 643.666 3403.28 652.603 3423.32 652.603C3460.42 652.603 3476 619.09 3476 599.726Z" fill="white"/>
<path d="M3476 599.726C3476 567.703 3447.8 549.829 3423.32 549.829C3402.54 549.829 3371.38 563.979 3371.38 600.471C3371.38 643.666 3403.28 652.603 3423.32 652.603C3460.42 652.603 3476 619.09 3476 599.726Z" fill="url(#paint7_linear)"/>
</g>
<defs>
<linearGradient id="paint0_linear" x1="339" y1="291.951" x2="339" y2="1014.4" gradientUnits="userSpaceOnUse">
<stop stop-color="#790FFF"/>
<stop offset="1" stop-color="#492CFF"/>
</linearGradient>
<linearGradient id="paint1_linear" x1="339" y1="291.951" x2="339" y2="1014.4" gradientUnits="userSpaceOnUse">
<stop stop-color="#790FFF"/>
<stop offset="1" stop-color="#492CFF"/>
</linearGradient>
<linearGradient id="paint2_linear" x1="339" y1="291.951" x2="339" y2="1014.4" gradientUnits="userSpaceOnUse">
<stop stop-color="#790FFF"/>
<stop offset="1" stop-color="#492CFF"/>
</linearGradient>
<linearGradient id="paint3_linear" x1="339" y1="291.951" x2="339" y2="1014.4" gradientUnits="userSpaceOnUse">
<stop stop-color="#790FFF"/>
<stop offset="1" stop-color="#492CFF"/>
</linearGradient>
<linearGradient id="paint4_linear" x1="339" y1="291.951" x2="339" y2="1014.4" gradientUnits="userSpaceOnUse">
<stop stop-color="#790FFF"/>
<stop offset="1" stop-color="#492CFF"/>
</linearGradient>
<linearGradient id="paint5_linear" x1="339" y1="291.951" x2="339" y2="1014.4" gradientUnits="userSpaceOnUse">
<stop stop-color="#790FFF"/>
<stop offset="1" stop-color="#492CFF"/>
</linearGradient>
<linearGradient id="paint6_linear" x1="339" y1="291.951" x2="339" y2="1014.4" gradientUnits="userSpaceOnUse">
<stop stop-color="#790FFF"/>
<stop offset="1" stop-color="#492CFF"/>
</linearGradient>
<linearGradient id="paint7_linear" x1="339" y1="291.951" x2="339" y2="1014.4" gradientUnits="userSpaceOnUse">
<stop stop-color="#790FFF"/>
<stop offset="1" stop-color="#492CFF"/>
</linearGradient>
<clipPath id="clip0">
<rect width="1000" height="3815" fill="white" transform="translate(3815) rotate(90)"/>
</clipPath>
</defs>
</svg>
